<svg xmlns="http://www.w3.org/2000/svg" xmlns:xlink="http://www.w3.org/1999/xlink" viewBox="0 0 430 430" width="430" height="430" style="width: 100%; height: 100%; transform: translate3d(0px, 0px, 0px); content-visibility: visible;" preserveAspectRatio="xMidYMid meet"><defs><clipPath id="__lottie_element_59"><rect width="430" height="430" x="0" y="0"/></clipPath><clipPath id="__lottie_element_61"><path d="M0,0 L430,0 L430,430 L0,430z"/></clipPath></defs><g clip-path="url(#__lottie_element_59)"><g clip-path="url(#__lottie_element_61)" style="display: block;" transform="matrix(1,0,0,1,0,0)" opacity="1"><g style="display: block;" transform="matrix(0,1,-1,0,215,262.673583984375)" opacity="1"><g opacity="1" transform="matrix(1,0,0,1,0,0)"><path stroke-linecap="round" stroke-linejoin="round" fill-opacity="0" class="primary" stroke="rgb(18,19,49)" stroke-opacity="1" stroke-width="12" d=" M3.3041622638702393,-89.69583892822266 C3.3041622638702393,-89.69583892822266 94.74527740478516,1.7452800273895264 94.74527740478516,1.7452800273895264 C94.74527740478516,1.7452800273895264 3.8039820194244385,92.68708801269531 3.8039820194244385,92.68708801269531"/></g></g><g style="display: none;" transform="matrix(0,1,-1,0,215,215)" opacity="1"><g opacity="1" transform="matrix(1,0,0,1,0,0)"><path stroke-linecap="round" stroke-linejoin="round" fill-opacity="0" class="primary" stroke="rgb(18,19,49)" stroke-opacity="1" stroke-width="12" d=" M-89,-182 C-89,-182 95.50399780273438,2.503999948501587 95.50399780273438,2.503999948501587 C95.50399780273438,2.503999948501587 -87.99199676513672,186 -87.99199676513672,186"/></g></g></g></g></svg>